<?xml version="1.0" standalone="no"?>
<!DOCTYPE svg PUBLIC "-//W3C//DTD SVG 20010904//EN"
 "http://www.w3.org/TR/2001/REC-SVG-20010904/DTD/svg10.dtd">
<svg version="1.0" xmlns="http://www.w3.org/2000/svg"
 width="695.000000pt" height="695.000000pt" viewBox="0 0 695.000000 695.000000"
 preserveAspectRatio="xMidYMid meet">

<g transform="translate(0.000000,695.000000) scale(0.100000,-0.100000)"
fill="#000000" stroke="none">
<path d="M1180 5481 c0 -5 17 -12 37 -16 83 -15 147 -66 182 -145 20 -44 21
-59 21 -1235 0 -1176 -1 -1191 -21 -1235 -36 -79 -99 -129 -181 -144 -21 -4
-38 -11 -38 -16 0 -6 224 -10 595 -10 371 0 595 4 595 10 0 5 -17 12 -37 16
-83 15 -146 65 -182 144 -20 44 -21 59 -21 1229 0 870 3 1194 12 1222 23 78
105 148 191 164 105 20 -9 25 -558 25 -340 0 -595 -4 -595 -9z"/>
<path d="M3145 4673 c-156 -33 -319 -124 -441 -247 -212 -213 -317 -508 -294
-826 18 -246 95 -443 245 -623 109 -131 291 -249 455 -294 101 -27 330 -25
433 5 511 147 803 716 656 1277 -93 358 -374 640 -707 711 -86 18 -257 17
-347 -3z m271 -34 c149 -92 224 -471 211 -1069 -10 -469 -67 -726 -186 -833
-143 -129 -291 -27 -365 254 -38 141 -57 317 -63 589 -11 457 36 803 132 966
28 48 97 111 129 118 39 8 108 -4 142 -25z"/>
<path d="M4270 2198 c-117 -59 -115 -224 3 -285 40 -20 123 -21 162 0 120 61
121 229 1 286 -55 27 -111 27 -166 -1z m125 -52 c95 -40 62 -186 -43 -186 -54
0 -92 38 -92 92 0 51 14 76 53 93 40 18 41 18 82 1z"/>
<path d="M5813 2205 c-38 -16 -53 -42 -53 -88 0 -44 21 -62 106 -90 78 -25 95
-50 48 -67 -21 -8 -42 -8 -79 2 -66 17 -66 17 -76 -9 -7 -19 -4 -25 19 -37
107 -53 238 -7 230 82 -4 43 -45 76 -107 87 -55 9 -79 29 -65 52 12 19 79 25
120 10 16 -6 23 -2 32 18 11 24 10 27 -23 41 -43 18 -110 18 -152 -1z"/>
<path d="M1360 2054 l0 -156 121 4 c118 3 121 4 145 31 31 37 31 77 -1 109
-22 22 -23 27 -10 38 9 7 15 29 15 50 0 30 -6 43 -26 59 -23 18 -41 21 -135
21 l-109 0 0 -156z m184 93 c10 -7 17 -22 14 -33 -3 -16 -13 -20 -61 -22 l-57
-3 0 36 c0 35 0 35 43 35 24 0 51 -6 61 -13z m26 -138 c19 -34 -4 -49 -71 -49
l-59 0 0 35 0 35 60 0 c50 0 61 -3 70 -21z"/>
<path d="M1840 2205 c0 -2 25 -45 55 -95 50 -83 55 -96 55 -150 l0 -60 40 0
40 0 0 58 c0 53 5 66 60 155 l60 97 -38 0 c-36 0 -40 -3 -77 -66 -43 -75 -40
-76 -93 18 -25 44 -30 48 -64 48 -21 0 -38 -2 -38 -5z"/>
<path d="M2650 2055 l0 -155 35 0 c34 0 35 1 35 38 0 27 7 45 23 60 l24 22 48
-60 c46 -57 50 -60 92 -60 l43 0 -69 87 -69 88 61 65 62 65 -40 3 c-38 3 -42
0 -107 -70 l-67 -73 -1 73 0 72 -35 0 -35 0 0 -155z"/>
<path d="M3241 2188 c-5 -13 -34 -79 -65 -147 -31 -69 -56 -128 -56 -133 0 -4
15 -8 33 -8 28 0 36 5 50 35 l17 35 70 0 70 0 14 -35 c13 -31 19 -35 50 -35
20 0 36 3 36 8 0 4 -30 73 -66 155 l-67 147 -39 0 c-31 0 -40 -5 -47 -22z m72
-105 c9 -27 17 -51 17 -55 0 -5 -21 -8 -46 -8 -25 0 -44 3 -42 8 2 4 11 28 22
55 10 26 22 47 25 47 4 0 15 -21 24 -47z"/>
<path d="M3670 2055 l0 -155 35 0 34 0 3 92 3 92 74 -92 c67 -82 78 -92 108
-92 l33 0 0 155 0 155 -40 0 -40 0 0 -91 0 -91 -72 90 c-64 80 -77 91 -105 91
l-33 1 0 -155z"/>
<path d="M4750 2055 l0 -155 40 0 40 0 0 45 0 45 55 0 c61 0 108 19 125 49 5
11 10 38 10 61 0 87 -37 110 -175 110 l-95 0 0 -155z m194 73 c7 -11 7 -26 0
-45 -8 -25 -15 -28 -62 -31 l-52 -3 0 51 0 51 51 -3 c36 -2 55 -8 63 -20z"/>
<path d="M5250 2104 c0 -122 15 -165 63 -191 35 -18 109 -20 149 -4 53 20 68
63 68 189 l0 112 -35 0 -35 0 0 -103 c0 -120 -12 -147 -63 -147 -18 0 -37 4
-44 8 -22 14 -33 63 -33 153 l0 89 -35 0 -35 0 0 -106z"/>
</g>
</svg>
